{"title":"Oz the Great and Powerful 2013 1080p x264 - alrmothe","uid":8517009,"size":9511285974,"categoryP":"video","categoryS":"hd___movies","magnet":"?xt=urn:btih:e955e275f1a1a9547a55c838b718b03ad38be232&amp;dn=Oz+the+Great+and+Powerful+2013+1080p+x264+-+alrmothe&amp;tr=udp%3A%2F%2Ftracker.openbittorrent.com%3A80&amp;tr=udp%3A%2F%2Fopen.demonii.com%3A1337&amp;tr=udp%3A%2F%2Ftracker.coppersurfer.tk%3A6969&amp;tr=udp%3A%2F%2Fexodus.desync.com%3A6969","seeders":0,"leechers":1,"uploader":".alrmothe","files":20,"time":1369773836,"description":"******************************************************\n\nOz the Great and Powerful 2013 1080p  x264 - alrmothe\n\n******************************************************\n\nTitle : Oz the Great and Powerful\nYEAR: 2013\nGENRE :   Adventure | Family | Fantasy       \nimdb URL http://www.imdb.com/title/tt1623205/\nOverall bit rate: 9644 kbps\nFormat version: Version 4 / Version 2\nFile size:  8.79 GiB\nDuration:  2h 10mn\nSub:Arabic,English\nsample:Yes\n******************************************************\n\nVideo\nFormat: Matroska\nFormat : AVC \nFormat/Info : Advanced Video Codec \nFormat profile : &lt;a class=&quot;__cf_email__&quot; href=&quot;/cdn-cgi/l/email-protection&quot; data-cfemail=&quot;430b2a242b030f776d72&quot;&gt;[email&amp;#160;protected]&lt;/a&gt;&lt;script cf-hash='f9e31' type=&quot;text/javascript&quot;&gt;\n/* &lt;![CDATA[ */!function(){try{var t=&quot;currentScript&quot;in document?document.currentScript:function(){for(var t=document.getElementsByTagName(&quot;script&quot;),e=t.length;e--;)if(t[e].getAttribute(&quot;cf-hash&quot;))return t[e]}();if(t&amp;&amp;t.previousSibling){var e,r,n,i,c=t.previousSibling,a=c.getAttribute(&quot;data-cfemail&quot;);if(a){for(e=&quot;&quot;,r=parseInt(a.substr(0,2),16),n=2;a.length-n;n+=2)i=parseInt(a.substr(n,2),16)^r,e+=String.fromCharCode(i);e=document.createTextNode(e),c.parentNode.replaceChild(e,c)}}}catch(u){}}();/* ]]&gt; */&lt;/script&gt; \nFormat settings, CABAC : Yes \nFormat settings, ReFrames : 4 frames  \nCodec ID : V_MPEG4/ISO/AVC  \nBit rate : 9000 kbps \nWidth : 1920 pixels \nHeight : 800 pixels \nDisplay aspect ratio : 2:40:1 \nFrame rate : 23.976 fps \nColor space : YUV \nChroma subsampling : 4:2:0 \nBit depth : 8 bits \nScan type : Progressive \nBits/(Pixel*Frame) : 0.244 \nStream size: 8.03 GiB \n\n\nAudio \nFormat: Ac3\nBit rate :640 Kbps\nChannel(s) : 6 channels\nChannel positions:Front: L C R, Side: L R, LFE\nSampling rate: 48.0 KHz\nBit depth: 16 bits\nCompression mode: Lossy\nStream size: 497 GiB\nLanguage : English\n\n******************************************************\n\n\nScreenshots &lt;a href=&quot;\nhttp://img694.imageshack.us/img694/7154/vlcsnap2013052821h07m46.png&quot; rel=&quot;nofollow&quot; target=&quot;_NEW&quot;&gt;\nhttp://img694.imageshack.us/img694/7154/vlcsnap2013052821h07m46.png&lt;/a&gt; &lt;a href=&quot;\nhttp://img853.imageshack.us/img853/8439/vlcsnap2013052821h08m09.png&quot; rel=&quot;nofollow&quot; target=&quot;_NEW&quot;&gt;\nhttp://img853.imageshack.us/img853/8439/vlcsnap2013052821h08m09.png&lt;/a&gt; &lt;a href=&quot;\nhttp://img33.imageshack.us/img33/8007/vlcsnap2013052821h08m25.png&quot; rel=&quot;nofollow&quot; target=&quot;_NEW&quot;&gt;\nhttp://img33.imageshack.us/img33/8007/vlcsnap2013052821h08m25.png&lt;/a&gt; &lt;a href=&quot;\nhttp://img42.imageshack.us/img42/7611/vlcsnap2013052821h08m33.png&quot; rel=&quot;nofollow&quot; target=&quot;_NEW&quot;&gt;\nhttp://img42.imageshack.us/img42/7611/vlcsnap2013052821h08m33.png&lt;/a&gt; &lt;a href=&quot;\nhttp://img836.imageshack.us/img836/9461/vlcsnap2013052821h10m17.png&quot; rel=&quot;nofollow&quot; target=&quot;_NEW&quot;&gt;\nhttp://img836.imageshack.us/img836/9461/vlcsnap2013052821h10m17.png&lt;/a&gt;\n\n\n\nUse KMPlayer for the best quality\n\n\n","torrent":{"xt":"urn:btih:e955e275f1a1a9547a55c838b718b03ad38be232","amp;dn":"Oz+the+Great+and+Powerful+2013+1080p+x264+-+alrmothe","amp;tr":["udp%3A%2F%2Ftracker.openbittorrent.com%3A80","udp%3A%2F%2Fopen.demonii.com%3A1337","udp%3A%2F%2Ftracker.coppersurfer.tk%3A6969","udp%3A%2F%2Fexodus.desync.com%3A6969"],"infoHash":"e955e275f1a1a9547a55c838b718b03ad38be232","infoHashBuffer":{"type":"Buffer","data":[233,85,226,117,241,161,169,84,122,85,200,56,183,24,176,58,211,139,226,50]},"announce":[],"urlList":[]}}